<?xml version="1.0" encoding="UTF-8"?>
<svg viewBox="0 0 720 800" xmlns="http://www.w3.org/2000/svg" font-family='system-ui, -apple-system, "Segoe UI", sans-serif'>
  <defs>
    <filter id="sh" x="-4%" y="-4%" width="108%" height="116%">
      <feDropShadow dx="0" dy="2" stdDeviation="3" flood-opacity="0.08"/>
    </filter>
    <marker id="a" viewBox="0 0 10 8" refX="10" refY="4" markerWidth="8" markerHeight="6" orient="auto">
      <path d="M0,0.5 L9,4 L0,7.5" fill="none" stroke="#475569" stroke-width="1.2" stroke-linejoin="round"/>
    </marker>
    <marker id="ah" viewBox="0 0 10 8" refX="10" refY="4" markerWidth="8" markerHeight="6" orient="auto">
      <path d="M0,0.5 L9,4 L0,7.5" fill="none" stroke="#475569" stroke-width="1.2" stroke-linejoin="round"/>
    </marker>
  </defs>
  <text x="360" y="30" text-anchor="middle" font-size="16" font-weight="700" fill="#ffffff">Exercise 9: Trading Compliance Guardrails</text>
  <text x="360" y="50" text-anchor="middle" font-size="11" fill="#cbd5e1">Stricter governance for financial services</text>
  <rect x="270" y="65" width="180" height="38" rx="19" fill="#10b981" filter="url(#sh)"/>
  <text x="360" y="88" text-anchor="middle" font-size="12" font-weight="600" fill="white">Trading Query</text>
  <rect x="140" y="133" width="440" height="44" rx="8" fill="#ef4444" filter="url(#sh)"/>
  <text x="360" y="152" text-anchor="middle" font-size="11" font-weight="700" fill="white">Kill Switch Check</text>
  <text x="360" y="170" text-anchor="middle" font-size="9" fill="rgba(255,255,255,0.85)">Threshold: 3 violations / 60 sec</text>
  <rect x="140" y="207" width="440" height="44" rx="8" fill="#f59e0b" filter="url(#sh)"/>
  <text x="360" y="226" text-anchor="middle" font-size="11" font-weight="700" fill="white">Rate Limiter</text>
  <text x="360" y="244" text-anchor="middle" font-size="9" fill="rgba(255,255,255,0.85)">Token bucket: 50 req/sec, 100 burst</text>
  <rect x="55" y="281" width="610" height="72" rx="8" fill="#6366f1" filter="url(#sh)"/>
  <text x="360" y="301" text-anchor="middle" font-size="11" font-weight="700" fill="white">INPUT Guardrail (Bedrock API)</text>
  <rect x="75" y="311" width="132" height="28" rx="5" fill="rgba(255,255,255,0.15)"/>
  <text x="141" y="329" text-anchor="middle" font-size="9" font-weight="600" fill="white">Content</text>
  <rect x="217" y="311" width="132" height="28" rx="5" fill="rgba(255,255,255,0.15)"/>
  <text x="283" y="329" text-anchor="middle" font-size="9" font-weight="600" fill="white">PII</text>
  <rect x="359" y="311" width="132" height="28" rx="5" fill="rgba(255,255,255,0.15)"/>
  <text x="425" y="329" text-anchor="middle" font-size="9" font-weight="600" fill="white">Topic</text>
  <rect x="501" y="311" width="132" height="28" rx="5" fill="rgba(255,255,255,0.15)"/>
  <text x="567" y="329" text-anchor="middle" font-size="9" font-weight="600" fill="white">Word</text>
  <rect x="140" y="383" width="440" height="48" rx="8" fill="#3b82f6" filter="url(#sh)"/>
  <text x="360" y="403" text-anchor="middle" font-size="12" font-weight="700" fill="white">Compliance Agent</text>
  <text x="360" y="423" text-anchor="middle" font-size="10" fill="#bfdbfe">Nova Lite | check_trading_rules()</text>
  <rect x="140" y="461" width="440" height="38" rx="8" fill="#6366f1" filter="url(#sh)"/>
  <text x="360" y="485" text-anchor="middle" font-size="11" font-weight="700" fill="white">OUTPUT Guardrail (same policies)</text>
  <rect x="140" y="529" width="440" height="38" rx="8" fill="#8b5cf6" filter="url(#sh)"/>
  <text x="360" y="553" text-anchor="middle" font-size="11" font-weight="700" fill="white">Model Evaluation (LLM-as-Judge: Claude Sonnet)</text>
  <rect x="140" y="597" width="440" height="34" rx="8" fill="#f59e0b"/>
  <text x="360" y="619" text-anchor="middle" font-size="10" font-weight="600" fill="#422006">CloudWatch Dashboard + Audit Log</text>
  <rect x="270" y="661" width="180" height="38" rx="19" fill="#10b981" filter="url(#sh)"/>
  <text x="360" y="684" text-anchor="middle" font-size="12" font-weight="600" fill="white">Compliance Response</text>
  <rect x="181" y="739" width="14" height="14" rx="3" fill="#ef4444"/>
  <text x="199" y="750" font-size="10" fill="#e2e8f0">Kill Switch</text>
  <rect x="286" y="739" width="14" height="14" rx="3" fill="#6366f1"/>
  <text x="304" y="750" font-size="10" fill="#e2e8f0">Guardrail</text>
  <rect x="377" y="739" width="14" height="14" rx="3" fill="#3b82f6"/>
  <text x="395" y="750" font-size="10" fill="#e2e8f0">Agent</text>
  <rect x="440" y="739" width="14" height="14" rx="3" fill="#f59e0b"/>
  <text x="458" y="750" font-size="10" fill="#e2e8f0">Monitoring</text>
  <g id="arrows">
    <line x1="360" y1="106" x2="360" y2="130" stroke="#475569" stroke-width="1.5" marker-end="url(#a)"/>
    <text x="374" y="120" font-size="9" fill="#cbd5e1">trading query</text>
    <line x1="360" y1="180" x2="360" y2="204" stroke="#475569" stroke-width="1.5" marker-end="url(#a)"/>
    <text x="374" y="194" font-size="9" fill="#cbd5e1">allowed</text>
    <line x1="360" y1="254" x2="360" y2="278" stroke="#475569" stroke-width="1.5" marker-end="url(#a)"/>
    <text x="374" y="268" font-size="9" fill="#cbd5e1">within limit</text>
    <line x1="360" y1="356" x2="360" y2="380" stroke="#475569" stroke-width="1.5" marker-end="url(#a)"/>
    <text x="374" y="370" font-size="9" fill="#cbd5e1">compliant input</text>
    <line x1="360" y1="434" x2="360" y2="458" stroke="#475569" stroke-width="1.5" marker-end="url(#a)"/>
    <text x="374" y="448" font-size="9" fill="#cbd5e1">agent response</text>
    <line x1="360" y1="502" x2="360" y2="526" stroke="#475569" stroke-width="1.5" marker-end="url(#a)"/>
    <text x="374" y="516" font-size="9" fill="#cbd5e1">safe output</text>
    <line x1="360" y1="570" x2="360" y2="594" stroke="#475569" stroke-width="1.5" marker-end="url(#a)"/>
    <text x="374" y="584" font-size="9" fill="#cbd5e1">input + response</text>
    <line x1="360" y1="634" x2="360" y2="658" stroke="#475569" stroke-width="1.5" marker-end="url(#a)"/>
    <text x="374" y="648" font-size="9" fill="#cbd5e1">eval scores</text>
  </g>
</svg>