<?xml version="1.0" encoding="UTF-8"?>
<svg viewBox="0 0 760 540" xmlns="http://www.w3.org/2000/svg"
     role="img" font-family='system-ui, -apple-system, "Segoe UI", sans-serif'>
  <title>Exercise 8: Clinical Literature RAG</title>
  <desc>Clinical query flows into two parallel Bedrock KB retrievers. If one KB fails, the Graceful Degradation path returns a PARTIAL report with disclaimer. Normal path passes through deduplication, aggregation, and a structured synthesis agent.</desc>

  <defs>
    <marker id="a" viewBox="0 0 10 8" refX="9" refY="4" markerWidth="6" markerHeight="5" orient="auto">
      <path d="M0,1 L8,4 L0,7" fill="none" stroke="#475569" stroke-width="1.8" stroke-linejoin="round"/>
    </marker>
    <marker id="r" viewBox="0 0 10 8" refX="9" refY="4" markerWidth="6" markerHeight="5" orient="auto">
      <path d="M0,1 L8,4 L0,7" fill="none" stroke="#ef4444" stroke-width="1.8" stroke-linejoin="round"/>
    </marker>
  </defs>

  <rect width="760" height="540" rx="12" fill="#0f172a"/>

  <!-- Title -->
  <text x="420" y="30" text-anchor="middle" font-size="15" font-weight="700" fill="#f1f5f9">Exercise 8 &#8212; Clinical Literature RAG</text>

  <!-- Query -->
  <rect x="310" y="46" width="220" height="36" rx="18" fill="#059669"/>
  <text x="420" y="69" text-anchor="middle" font-size="13" font-weight="700" fill="#fff">Clinical Query</text>

  <line x1="420" y1="84" x2="420" y2="104" stroke="#475569" stroke-width="2" marker-end="url(#a)"/>
  <text x="420" y="118" text-anchor="middle" font-size="10" font-weight="600" fill="#0891b2">&#9658; parallel (ThreadPoolExecutor)</text>

  <!-- Drug KB -->
  <rect x="180" y="126" width="200" height="62" rx="8" fill="#1e3a8a"/>
  <text x="280" y="149" text-anchor="middle" font-size="12" font-weight="700" fill="#fff">Drug Interactions KB</text>
  <text x="280" y="166" text-anchor="middle" font-size="10" fill="#93c5fd">Nova Lite retriever</text>
  <text x="280" y="181" text-anchor="middle" font-size="10" fill="#64748b">bedrock-agent-runtime.retrieve()</text>

  <!-- Guidelines KB -->
  <rect x="460" y="126" width="200" height="62" rx="8" fill="#1e3a8a"/>
  <text x="560" y="149" text-anchor="middle" font-size="12" font-weight="700" fill="#fff">Clinical Guidelines KB</text>
  <text x="560" y="166" text-anchor="middle" font-size="10" fill="#93c5fd">Nova Lite retriever</text>
  <text x="560" y="181" text-anchor="middle" font-size="10" fill="#64748b">bedrock-agent-runtime.retrieve()</text>

  <!-- Normal converging arrows -->
  <line x1="280" y1="190" x2="370" y2="234" stroke="#475569" stroke-width="1.8" marker-end="url(#a)"/>
  <line x1="560" y1="190" x2="470" y2="234" stroke="#475569" stroke-width="1.8" marker-end="url(#a)"/>

  <!-- Graceful Degradation box -->
  <rect x="14" y="148" width="148" height="76" rx="8" fill="#7f1d1d" stroke="#ef4444" stroke-width="1.5"/>
  <text x="88" y="170" text-anchor="middle" font-size="11" font-weight="700" fill="#fca5a5">&#9889; Graceful</text>
  <text x="88" y="185" text-anchor="middle" font-size="11" font-weight="700" fill="#fca5a5">Degradation &#10022; NEW</text>
  <text x="88" y="202" text-anchor="middle" font-size="9" fill="#fca5a5">KB fails &#8594; Drug=0</text>
  <text x="88" y="215" text-anchor="middle" font-size="9" fill="#fca5a5">PARTIAL flag + disclaimer</text>

  <!-- Failure arrow from Drug KB to Graceful Degradation box -->
  <line x1="180" y1="165" x2="164" y2="181" stroke="#ef4444" stroke-width="1.5" stroke-dasharray="4 3" marker-end="url(#r)"/>

  <!-- Dedup -->
  <rect x="255" y="238" width="330" height="44" rx="8" fill="#5b21b6"/>
  <text x="420" y="257" text-anchor="middle" font-size="12" font-weight="700" fill="#fff">Deduplication &#10022; NEW</text>
  <text x="420" y="274" text-anchor="middle" font-size="10" fill="#c4b5fd">hash-based &#183; drop near-duplicates &#183; keep top score</text>

  <line x1="420" y1="284" x2="420" y2="304" stroke="#475569" stroke-width="2" marker-end="url(#a)"/>

  <!-- Aggregation -->
  <rect x="255" y="308" width="330" height="40" rx="8" fill="#1e3a8a"/>
  <text x="420" y="326" text-anchor="middle" font-size="12" font-weight="700" fill="#fff">Aggregation &amp; Ranking</text>
  <text x="420" y="342" text-anchor="middle" font-size="10" fill="#93c5fd">sort by score &#183; top-K = 10</text>

  <line x1="420" y1="350" x2="420" y2="370" stroke="#475569" stroke-width="2" marker-end="url(#a)"/>

  <!-- Synthesis Agent -->
  <rect x="160" y="374" width="520" height="68" rx="8" fill="#1d4ed8"/>
  <text x="420" y="394" text-anchor="middle" font-size="12" font-weight="700" fill="#fff">Synthesis Agent &#10022; Structured Output NEW</text>
  <text x="420" y="411" text-anchor="middle" font-size="10" fill="#93c5fd">Nova Pro &#183; enforces 3 sections &#183; citations required</text>
  <rect x="170" y="418" width="136" height="18" rx="4" fill="#1e40af"/>
  <text x="238" y="431" text-anchor="middle" font-size="9" font-weight="600" fill="#bfdbfe">&#9312; Drug Interactions</text>
  <rect x="352" y="418" width="136" height="18" rx="4" fill="#1e40af"/>
  <text x="420" y="431" text-anchor="middle" font-size="9" font-weight="600" fill="#bfdbfe">&#9313; Clinical Guidelines</text>
  <rect x="534" y="418" width="136" height="18" rx="4" fill="#1e40af"/>
  <text x="602" y="431" text-anchor="middle" font-size="9" font-weight="600" fill="#bfdbfe">&#9314; Recommendation</text>

  <line x1="420" y1="444" x2="420" y2="464" stroke="#475569" stroke-width="2" marker-end="url(#a)"/>

  <!-- Output -->
  <rect x="270" y="468" width="300" height="36" rx="18" fill="#059669"/>
  <text x="420" y="491" text-anchor="middle" font-size="13" font-weight="700" fill="#fff">Clinical Report</text>

  <!-- Graceful degradation path to output -->
  <line x1="88" y1="226" x2="88" y2="486" stroke="#ef4444" stroke-width="1.4" stroke-dasharray="4 3"/>
  <line x1="88" y1="486" x2="268" y2="486" stroke="#ef4444" stroke-width="1.4" stroke-dasharray="4 3" marker-end="url(#r)"/>
  <text x="150" y="510" text-anchor="middle" font-size="9" fill="#ef4444">PARTIAL report with disclaimer in section &#9314;</text>
</svg>
