<?xml version="1.0" encoding="UTF-8"?>
<svg viewBox="0 0 720 680" xmlns="http://www.w3.org/2000/svg" font-family='system-ui, -apple-system, "Segoe UI", sans-serif'>
  <defs>
    <filter id="sh" x="-4%" y="-4%" width="108%" height="116%">
      <feDropShadow dx="0" dy="2" stdDeviation="3" flood-opacity="0.08"/>
    </filter>
    <marker id="a" viewBox="0 0 10 8" refX="10" refY="4" markerWidth="8" markerHeight="6" orient="auto">
      <path d="M0,0.5 L9,4 L0,7.5" fill="none" stroke="#475569" stroke-width="1.2" stroke-linejoin="round"/>
    </marker>
    <marker id="ah" viewBox="0 0 10 8" refX="10" refY="4" markerWidth="8" markerHeight="6" orient="auto">
      <path d="M0,0.5 L9,4 L0,7.5" fill="none" stroke="#475569" stroke-width="1.2" stroke-linejoin="round"/>
    </marker>
  </defs>
  <rect width="720" height="680" rx="12" fill="#1e293b"/>
  <text x="360" y="30" text-anchor="middle" font-size="16" font-weight="700" fill="#ffffff">Lesson 10: Insurance Claims Deployment</text>
  <text x="360" y="50" text-anchor="middle" font-size="11" fill="#cbd5e1">AgentCore Runtime + monitoring + cost</text>
  <rect x="40" y="60" width="640" height="175" rx="10" fill="#6366f1" filter="url(#sh)"/>
  <text x="360" y="82" text-anchor="middle" font-size="13" font-weight="700" fill="white">AgentCore Runtime</text>
  <text x="360" y="102" text-anchor="middle" font-size="10" fill="#c7d2fe">Network: PUBLIC | Protocol: MCP | Guardrail: ENABLED</text>
  <rect x="80" y="112" width="560" height="30" rx="6" fill="rgba(255,255,255,0.15)"/>
  <text x="220" y="132" text-anchor="middle" font-size="11" font-weight="600" fill="white">ClaimsRouter</text>
  <text x="500" y="132" text-anchor="middle" font-size="10" fill="#c7d2fe">Nova Lite | t=0.0</text>
  <rect x="80" y="152" width="560" height="30" rx="6" fill="rgba(255,255,255,0.15)"/>
  <text x="220" y="172" text-anchor="middle" font-size="11" font-weight="600" fill="white">ClaimsAnalyzer</text>
  <text x="500" y="172" text-anchor="middle" font-size="10" fill="#c7d2fe">Claude Sonnet | t=0.1</text>
  <rect x="80" y="192" width="560" height="30" rx="6" fill="rgba(255,255,255,0.15)"/>
  <text x="220" y="212" text-anchor="middle" font-size="11" font-weight="600" fill="white">ClaimsResponder</text>
  <text x="500" y="212" text-anchor="middle" font-size="10" fill="#c7d2fe">Nova Pro | t=0.3</text>
  <text x="50" y="259" font-size="11" font-weight="700" fill="#ffffff">Deployment Pipeline</text>
  <rect x="65" y="275" width="90" height="30" rx="6" fill="#3b82f6"/>
  <text x="110" y="295" text-anchor="middle" font-size="8" font-weight="600" fill="white">Build</text>
  <text x="159" y="295" font-size="11" fill="#334155">→</text>
  <rect x="163" y="275" width="90" height="30" rx="6" fill="#3b82f6"/>
  <text x="208" y="295" text-anchor="middle" font-size="8" font-weight="600" fill="white">Guardrail</text>
  <text x="257" y="295" font-size="11" fill="#334155">→</text>
  <rect x="261" y="275" width="90" height="30" rx="6" fill="#3b82f6"/>
  <text x="306" y="295" text-anchor="middle" font-size="8" font-weight="600" fill="white">Runtime</text>
  <text x="355" y="295" font-size="11" fill="#334155">→</text>
  <rect x="359" y="275" width="90" height="30" rx="6" fill="#3b82f6"/>
  <text x="404" y="295" text-anchor="middle" font-size="8" font-weight="600" fill="white">Memory</text>
  <text x="453" y="295" font-size="11" fill="#334155">→</text>
  <rect x="457" y="275" width="90" height="30" rx="6" fill="#3b82f6"/>
  <text x="502" y="295" text-anchor="middle" font-size="8" font-weight="600" fill="white">Observability</text>
  <text x="551" y="295" font-size="11" fill="#334155">→</text>
  <rect x="555" y="275" width="90" height="30" rx="6" fill="#3b82f6"/>
  <text x="600" y="295" text-anchor="middle" font-size="8" font-weight="600" fill="white">Smoke Test</text>
  <text x="50" y="329" font-size="11" font-weight="700" fill="#ffffff">Monitoring</text>
  <rect x="65" y="345" width="186" height="50" rx="6" fill="#f59e0b"/>
  <text x="158" y="365" text-anchor="middle" font-size="10" font-weight="600" fill="#422006">CloudWatch</text>
  <text x="158" y="385" text-anchor="middle" font-size="8" fill="#713f12">Dashboard, 4 widgets</text>
  <rect x="261" y="345" width="186" height="50" rx="6" fill="#f59e0b"/>
  <text x="354" y="365" text-anchor="middle" font-size="10" font-weight="600" fill="#422006">X-Ray</text>
  <text x="354" y="385" text-anchor="middle" font-size="8" fill="#713f12">Tracing, 5% sampling</text>
  <rect x="457" y="345" width="186" height="50" rx="6" fill="#f59e0b"/>
  <text x="550" y="365" text-anchor="middle" font-size="10" font-weight="600" fill="#422006">Alarms</text>
  <text x="550" y="385" text-anchor="middle" font-size="8" fill="#713f12">Error>5%, P99>10s</text>
  <rect x="90" y="417" width="540" height="36" rx="8" fill="#fffbeb" stroke="#fbbf24" stroke-width="1"/>
  <text x="360" y="440" text-anchor="middle" font-size="11" font-weight="600" fill="#92400e">Estimated: ~$1,997/month @ 10K req/day</text>
  <rect x="230" y="475" width="14" height="14" rx="3" fill="#6366f1"/>
  <text x="248" y="486" font-size="10" fill="#e2e8f0">Runtime</text>
  <rect x="307" y="475" width="14" height="14" rx="3" fill="#3b82f6"/>
  <text x="325" y="486" font-size="10" fill="#e2e8f0">Pipeline</text>
  <rect x="391" y="475" width="14" height="14" rx="3" fill="#f59e0b"/>
  <text x="409" y="486" font-size="10" fill="#e2e8f0">Monitoring</text>
  <g id="arrows">
  </g>
</svg>