<?xml version="1.0" encoding="UTF-8"?>
<svg viewBox="0 0 720 680" xmlns="http://www.w3.org/2000/svg" font-family='system-ui, -apple-system, "Segoe UI", sans-serif'>
  <defs>
    <filter id="sh" x="-4%" y="-4%" width="108%" height="116%">
      <feDropShadow dx="0" dy="2" stdDeviation="3" flood-opacity="0.08"/>
    </filter>
    <marker id="a" viewBox="0 0 10 8" refX="10" refY="4" markerWidth="8" markerHeight="6" orient="auto">
      <path d="M0,0.5 L9,4 L0,7.5" fill="none" stroke="#475569" stroke-width="1.2" stroke-linejoin="round"/>
    </marker>
    <marker id="ah" viewBox="0 0 10 8" refX="10" refY="4" markerWidth="8" markerHeight="6" orient="auto">
      <path d="M0,0.5 L9,4 L0,7.5" fill="none" stroke="#475569" stroke-width="1.2" stroke-linejoin="round"/>
    </marker>
  </defs>
  <text x="360" y="30" text-anchor="middle" font-size="16" font-weight="700" fill="#ffffff">Exercise 11: Analytics Gateway</text>
  <text x="360" y="50" text-anchor="middle" font-size="11" fill="#cbd5e1">2 Lambda + 1 REST API registered as Gateway tools</text>
  <rect x="270" y="65" width="180" height="38" rx="19" fill="#10b981" filter="url(#sh)"/>
  <text x="360" y="88" text-anchor="middle" font-size="12" font-weight="600" fill="white">Analytics Query</text>
  <rect x="160" y="139" width="400" height="48" rx="8" fill="#3b82f6" filter="url(#sh)"/>
  <text x="360" y="159" text-anchor="middle" font-size="12" font-weight="700" fill="white">Analytics Agent</text>
  <text x="360" y="179" text-anchor="middle" font-size="10" fill="#bfdbfe">Nova Lite | temp 0.1</text>
  <rect x="90" y="217" width="540" height="52" rx="8" fill="#6366f1" filter="url(#sh)"/>
  <text x="360" y="239" text-anchor="middle" font-size="13" font-weight="700" fill="white">Lambda Gateway</text>
  <text x="360" y="259" text-anchor="middle" font-size="10" fill="#c7d2fe">register → discover → invoke (semantic selection)</text>
  <rect x="40" y="291" width="201" height="68" rx="8" fill="#f59e0b" filter="url(#sh)"/>
  <text x="146" y="311" text-anchor="middle" font-size="10" font-weight="700" fill="#422006">Weather</text>
  <text x="146" y="329" text-anchor="middle" font-size="9" fill="#713f12">get_weather()</text>
  <text x="146" y="347" text-anchor="middle" font-size="8" fill="#92400e">City weather</text>
  <rect x="253" y="291" width="201" height="68" rx="8" fill="#f59e0b" filter="url(#sh)"/>
  <text x="359" y="311" text-anchor="middle" font-size="10" font-weight="700" fill="#422006">Currency</text>
  <text x="359" y="329" text-anchor="middle" font-size="9" fill="#713f12">convert_currency()</text>
  <text x="359" y="347" text-anchor="middle" font-size="8" fill="#92400e">FX rates</text>
  <rect x="466" y="291" width="201" height="68" rx="8" fill="#f59e0b" filter="url(#sh)"/>
  <text x="572" y="311" text-anchor="middle" font-size="10" font-weight="700" fill="#422006">News</text>
  <text x="572" y="329" text-anchor="middle" font-size="9" fill="#713f12">get_news()</text>
  <text x="572" y="347" text-anchor="middle" font-size="8" fill="#92400e">Headlines</text>
  <rect x="90" y="379" width="540" height="48" rx="8" fill="#f0fdf4" stroke="#86efac" stroke-width="1.5" stroke-dasharray="6,3"/>
  <text x="360" y="399" text-anchor="middle" font-size="11" font-weight="700" fill="#166534">+ Dynamic: Stock Price</text>
  <text x="360" y="419" text-anchor="middle" font-size="10" fill="#15803d">Dynamic extension — zero code changes</text>
  <rect x="270" y="471" width="180" height="38" rx="19" fill="#10b981" filter="url(#sh)"/>
  <text x="360" y="494" text-anchor="middle" font-size="12" font-weight="600" fill="white">Analytics Response</text>
  <rect x="80" y="521" width="560" height="32" rx="8" fill="#fffbeb" stroke="#fbbf24" stroke-width="1"/>
  <text x="360" y="542" text-anchor="middle" font-size="10" font-weight="600" fill="#92400e">Gateway decouples agents from tools — add/remove without code changes</text>
  <rect x="230" y="573" width="14" height="14" rx="3" fill="#3b82f6"/>
  <text x="248" y="584" font-size="10" fill="#e2e8f0">Agent</text>
  <rect x="293" y="573" width="14" height="14" rx="3" fill="#6366f1"/>
  <text x="311" y="584" font-size="10" fill="#e2e8f0">Gateway</text>
  <rect x="370" y="573" width="14" height="14" rx="3" fill="#f59e0b"/>
  <text x="388" y="584" font-size="10" fill="#e2e8f0">Lambda</text>
  <rect x="440" y="573" width="14" height="14" rx="3" fill="#10b981"/>
  <text x="458" y="584" font-size="10" fill="#e2e8f0">I/O</text>
  <g id="arrows">
    <line x1="360" y1="106" x2="360" y2="136" stroke="#475569" stroke-width="1.5" marker-end="url(#a)"/>
    <line x1="360" y1="190" x2="360" y2="214" stroke="#475569" stroke-width="1.5" marker-end="url(#a)"/>
    <line x1="360" y1="269" x2="146" y2="288" stroke="#475569" stroke-width="1.2" marker-end="url(#a)"/>
    <line x1="360" y1="269" x2="359" y2="288" stroke="#475569" stroke-width="1.2" marker-end="url(#a)"/>
    <line x1="360" y1="269" x2="572" y2="288" stroke="#475569" stroke-width="1.2" marker-end="url(#a)"/>
    <line x1="360" y1="444" x2="360" y2="468" stroke="#475569" stroke-width="1.5" marker-end="url(#a)"/>
  </g>
</svg>