<?xml version="1.0" encoding="UTF-8"?>
<svg viewBox="0 0 720 740" xmlns="http://www.w3.org/2000/svg" font-family='system-ui, -apple-system, "Segoe UI", sans-serif'>
  <defs>
    <filter id="sh" x="-4%" y="-4%" width="108%" height="116%">
      <feDropShadow dx="0" dy="2" stdDeviation="3" flood-opacity="0.08"/>
    </filter>
    <marker id="a" viewBox="0 0 10 8" refX="10" refY="4" markerWidth="8" markerHeight="6" orient="auto">
      <path d="M0,0.5 L9,4 L0,7.5" fill="none" stroke="#475569" stroke-width="1.2" stroke-linejoin="round"/>
    </marker>
    <marker id="ah" viewBox="0 0 10 8" refX="10" refY="4" markerWidth="8" markerHeight="6" orient="auto">
      <path d="M0,0.5 L9,4 L0,7.5" fill="none" stroke="#475569" stroke-width="1.2" stroke-linejoin="round"/>
    </marker>
  </defs>
  <text x="360" y="30" text-anchor="middle" font-size="16" font-weight="700" fill="#0f172a">Lesson 8: Multi-Agent RAG Research Assistant</text>
  <text x="360" y="50" text-anchor="middle" font-size="11" fill="#64748b">Parallel KB retrieval with grounded synthesis</text>
  <rect x="270" y="65" width="180" height="38" rx="19" fill="#10b981" filter="url(#sh)"/>
  <text x="360" y="88" text-anchor="middle" font-size="12" font-weight="600" fill="white">Research Query</text>
  <rect x="25" y="133" width="670" height="190" rx="10" fill="#ecfeff" stroke="#06b6d4" stroke-width="1.5" stroke-dasharray="6,3"/>
  <text x="40" y="151" font-size="10" font-weight="700" fill="#0891b2">ThreadPoolExecutor (max_workers=2) — Parallel Retrieval</text>
  <rect x="45" y="163" width="300" height="48" rx="8" fill="#3b82f6" filter="url(#sh)"/>
  <text x="195" y="183" text-anchor="middle" font-size="11" font-weight="700" fill="white">CS Retriever</text>
  <text x="195" y="203" text-anchor="middle" font-size="9" fill="#bfdbfe">Nova Lite | retrieve_cs_papers()</text>
  <rect x="55" y="221" width="280" height="30" rx="6" fill="#f59e0b"/>
  <text x="195" y="241" text-anchor="middle" font-size="10" font-weight="600" fill="#422006">KB: CS Papers</text>
  <rect x="375" y="163" width="300" height="48" rx="8" fill="#3b82f6" filter="url(#sh)"/>
  <text x="525" y="183" text-anchor="middle" font-size="11" font-weight="700" fill="white">Bio Retriever</text>
  <text x="525" y="203" text-anchor="middle" font-size="9" fill="#bfdbfe">Nova Lite | retrieve_bio_papers()</text>
  <rect x="385" y="221" width="280" height="30" rx="6" fill="#f59e0b"/>
  <text x="525" y="241" text-anchor="middle" font-size="10" font-weight="600" fill="#422006">KB: Biology Papers</text>
  <text x="360" y="315" text-anchor="middle" font-size="9" font-weight="600" fill="#0891b2">Merge results</text>
  <rect x="120" y="359" width="480" height="42" rx="8" fill="#dbeafe" stroke="#3b82f6" stroke-width="1"/>
  <text x="360" y="376" text-anchor="middle" font-size="11" font-weight="600" fill="#1e40af">Aggregation + Deduplication</text>
  <text x="360" y="394" text-anchor="middle" font-size="9" fill="#1e3a5f">Rank by relevance, select top-K</text>
  <rect x="110" y="431" width="500" height="52" rx="8" fill="#3b82f6" filter="url(#sh)"/>
  <text x="360" y="453" text-anchor="middle" font-size="12" font-weight="700" fill="white">Synthesis Agent</text>
  <text x="360" y="473" text-anchor="middle" font-size="10" fill="#bfdbfe">Nova Pro | temp 0.2 | Grounded [DOC_ID] citations</text>
  <rect x="190" y="519" width="340" height="38" rx="19" fill="#10b981" filter="url(#sh)"/>
  <text x="360" y="542" text-anchor="middle" font-size="12" font-weight="600" fill="white">Grounded Research Summary</text>
  <rect x="80" y="569" width="560" height="32" rx="8" fill="#fffbeb" stroke="#fbbf24" stroke-width="1"/>
  <text x="360" y="590" text-anchor="middle" font-size="10" font-weight="600" fill="#92400e">Graceful degradation: if one KB fails, synthesis uses partial results</text>
  <rect x="213" y="621" width="14" height="14" rx="3" fill="#06b6d4"/>
  <text x="231" y="632" font-size="10" fill="#64748b">Parallel</text>
  <rect x="297" y="621" width="14" height="14" rx="3" fill="#3b82f6"/>
  <text x="315" y="632" font-size="10" fill="#64748b">Agent</text>
  <rect x="360" y="621" width="14" height="14" rx="3" fill="#f59e0b"/>
  <text x="378" y="632" font-size="10" fill="#64748b">KB</text>
  <rect x="402" y="621" width="14" height="14" rx="3" fill="#dbeafe"/>
  <text x="420" y="632" font-size="10" fill="#64748b">Aggregation</text>
  <g id="arrows">
    <line x1="360" y1="106" x2="360" y2="130" stroke="#475569" stroke-width="1.5" marker-end="url(#a)"/>
    <line x1="195" y1="323" x2="360" y2="356" stroke="#475569" stroke-width="1.2" marker-end="url(#a)"/>
    <line x1="525" y1="323" x2="360" y2="356" stroke="#475569" stroke-width="1.2" marker-end="url(#a)"/>
    <line x1="360" y1="404" x2="360" y2="428" stroke="#475569" stroke-width="1.5" marker-end="url(#a)"/>
    <line x1="360" y1="486" x2="360" y2="516" stroke="#475569" stroke-width="1.5" marker-end="url(#a)"/>
  </g>
</svg>