<svg viewBox="0 0 720 840" xmlns="http://www.w3.org/2000/svg">
  <defs>
    <filter id="shadow5" x="-50%" y="-50%" width="200%" height="200%">
      <feDropShadow dx="2" dy="2" stdDeviation="3" flood-opacity="0.15"/>
    </filter>
    <marker id="arrow5" markerWidth="10" markerHeight="10" refX="9" refY="3" orient="auto" markerUnits="strokeWidth">
      <path d="M0,0 L0,6 L9,3 z" fill="#475569"/>
    </marker>
    <style>
      text { font-family: 'Segoe UI', system-ui, sans-serif; }
      .title { font-size: 18px; font-weight: bold; text-anchor: middle; }
      .subtitle { font-size: 12px; fill: #6b7280; text-anchor: middle; }
      .label { font-size: 13px; text-anchor: middle; }
    </style>
  </defs>

  <!-- Title -->
  <text x="360" y="30" class="title">Lesson 5: Hybrid Routing Architecture</text>
  <text x="360" y="48" class="subtitle">Request cascade through 4-tier routing system</text>

  <!-- Incoming Request -->
  <rect x="280" y="70" width="160" height="50" rx="25" fill="#fef3c7" stroke="#f59e0b" stroke-width="2" filter="url(#shadow5)"/>
  <text x="360" y="100" class="label" fill="#92400e">Incoming Request</text>

  <!-- Arrow down -->
  <line x1="360" y1="120" x2="360" y2="160" stroke="#475569" stroke-width="2" marker-end="url(#arrow5)"/>

  <!-- Tier 1: Priority Routing -->
  <rect x="260" y="160" width="200" height="60" rx="4" fill="#dbeafe" stroke="#3b82f6" stroke-width="2" filter="url(#shadow5)"/>
  <text x="360" y="183" class="label" fill="#1e40af" font-weight="bold">Tier 1: PRIORITY ROUTING</text>
  <text x="360" y="205" class="label" fill="#1e40af" font-size="11px">High-value customers skip to specialist</text>

  <!-- Arrow down -->
  <line x1="360" y1="220" x2="360" y2="260" stroke="#475569" stroke-width="2" marker-end="url(#arrow5)"/>
  <text x="380" y="245" class="label" fill="#6b7280" font-size="11px">(no match)</text>

  <!-- Tier 2: Rule-Based -->
  <rect x="260" y="260" width="200" height="60" rx="4" fill="#dbeafe" stroke="#3b82f6" stroke-width="2" filter="url(#shadow5)"/>
  <text x="360" y="283" class="label" fill="#1e40af" font-weight="bold">Tier 2: RULE-BASED</text>
  <text x="360" y="305" class="label" fill="#1e40af" font-size="11px">Keyword/regex matching (70% traffic)</text>

  <!-- Arrow down -->
  <line x1="360" y1="320" x2="360" y2="360" stroke="#475569" stroke-width="2" marker-end="url(#arrow5)"/>
  <text x="380" y="345" class="label" fill="#6b7280" font-size="11px">(no match)</text>

  <!-- Tier 3: LLM Classification -->
  <rect x="260" y="360" width="200" height="60" rx="4" fill="#dbeafe" stroke="#3b82f6" stroke-width="2" filter="url(#shadow5)"/>
  <text x="360" y="383" class="label" fill="#1e40af" font-weight="bold">Tier 3: LLM CLASSIFICATION</text>
  <text x="360" y="405" class="label" fill="#1e40af" font-size="11px">Nova Lite classifies ambiguous cases</text>

  <!-- Arrow down -->
  <line x1="360" y1="420" x2="360" y2="460" stroke="#475569" stroke-width="2" marker-end="url(#arrow5)"/>
  <text x="380" y="445" class="label" fill="#6b7280" font-size="11px">(low confidence)</text>

  <!-- Tier 4: Fallback -->
  <rect x="260" y="460" width="200" height="60" rx="4" fill="#dbeafe" stroke="#3b82f6" stroke-width="2" filter="url(#shadow5)"/>
  <text x="360" y="483" class="label" fill="#1e40af" font-weight="bold">Tier 4: FALLBACK</text>
  <text x="360" y="505" class="label" fill="#1e40af" font-size="11px">Default to general queue</text>

  <!-- Arrow down -->
  <line x1="360" y1="520" x2="360" y2="560" stroke="#475569" stroke-width="2" marker-end="url(#arrow5)"/>

  <!-- Specialist Agents Section -->
  <text x="360" y="575" class="subtitle">Specialist Agents</text>

  <!-- FraudAgent -->
  <rect x="80" y="600" width="140" height="50" rx="4" fill="#f0fdf4" stroke="#22c55e" stroke-width="2" filter="url(#shadow5)"/>
  <text x="150" y="630" class="label" fill="#166534">FraudAgent</text>

  <!-- LoanAgent -->
  <rect x="240" y="600" width="140" height="50" rx="4" fill="#f0fdf4" stroke="#22c55e" stroke-width="2" filter="url(#shadow5)"/>
  <text x="310" y="630" class="label" fill="#166534">LoanAgent</text>

  <!-- AccountAgent -->
  <rect x="400" y="600" width="140" height="50" rx="4" fill="#f0fdf4" stroke="#22c55e" stroke-width="2" filter="url(#shadow5)"/>
  <text x="470" y="630" class="label" fill="#166534">AccountAgent</text>

  <!-- GeneralAgent -->
  <rect x="560" y="600" width="140" height="50" rx="4" fill="#f0fdf4" stroke="#22c55e" stroke-width="2" filter="url(#shadow5)"/>
  <text x="630" y="630" class="label" fill="#166534">GeneralAgent</text>

  <!-- Arrows from router to agents -->
  <line x1="320" y1="560" x2="150" y2="600" stroke="#475569" stroke-width="2" marker-end="url(#arrow5)"/>
  <line x1="340" y1="560" x2="310" y2="600" stroke="#475569" stroke-width="2" marker-end="url(#arrow5)"/>
  <line x1="380" y1="560" x2="470" y2="600" stroke="#475569" stroke-width="2" marker-end="url(#arrow5)"/>
  <line x1="400" y1="560" x2="630" y2="600" stroke="#475569" stroke-width="2" marker-end="url(#arrow5)"/>

  <!-- Legend -->
  <g>
    <text x="40" y="760" class="subtitle" text-anchor="start" font-weight="bold">Legend:</text>

    <rect x="40" y="775" width="12" height="12" rx="2" fill="#dbeafe" stroke="#3b82f6"/>
    <text x="58" y="783" class="label" text-anchor="start" font-size="11px">Routing Agents</text>

    <rect x="220" y="775" width="12" height="12" rx="2" fill="#f0fdf4" stroke="#22c55e"/>
    <text x="238" y="783" class="label" text-anchor="start" font-size="11px">Specialist Agents</text>

    <rect x="420" y="775" width="12" height="12" rx="2" fill="#fef3c7" stroke="#f59e0b"/>
    <text x="438" y="783" class="label" text-anchor="start" font-size="11px">Input Data</text>

    <path d="M 600 781 L 610 781" stroke="#475569" stroke-width="2" marker-end="url(#arrow5)"/>
    <text x="620" y="783" class="label" text-anchor="start" font-size="11px">Control Flow</text>
  </g>
</svg>
