<svg viewBox="0 0 720 820" xmlns="http://www.w3.org/2000/svg">
  <defs>
    <filter id="shadow5" x="-50%" y="-50%" width="200%" height="200%">
      <feDropShadow dx="2" dy="2" stdDeviation="3" flood-opacity="0.15"/>
    </filter>
    <marker id="arrow5" markerWidth="10" markerHeight="10" refX="9" refY="3" orient="auto" markerUnits="strokeWidth">
      <path d="M0,0 L0,6 L9,3 z" fill="#475569"/>
    </marker>
    <style>
      text { font-family: 'Segoe UI', system-ui, sans-serif; }
      .title { font-size: 18px; font-weight: bold; text-anchor: middle; }
      .subtitle { font-size: 12px; fill: #6b7280; text-anchor: middle; }
      .label { font-size: 13px; text-anchor: middle; }
    </style>
  </defs>

  <!-- White background for dark mode compatibility -->
  <rect width="100%" height="100%" fill="white" rx="8"/>

  <!-- Title -->
  <text x="360" y="30" class="title">Lesson 5: Hybrid Routing Architecture</text>
  <text x="360" y="48" class="subtitle">Request cascade through 4-tier routing system</text>

  <!-- Incoming Request -->
  <rect x="280" y="70" width="160" height="50" rx="25" fill="#fef3c7" stroke="#f59e0b" stroke-width="2" filter="url(#shadow5)"/>
  <text x="360" y="100" class="label" fill="#92400e">Incoming Request</text>

  <!-- Arrow down -->
  <line x1="360" y1="120" x2="360" y2="155" stroke="#475569" stroke-width="2" marker-end="url(#arrow5)"/>

  <!-- Tier 1: Priority Routing -->
  <rect x="240" y="155" width="240" height="60" rx="4" fill="#dbeafe" stroke="#3b82f6" stroke-width="2" filter="url(#shadow5)"/>
  <text x="360" y="180" class="label" fill="#1e40af" font-weight="bold">Tier 1: PRIORITY ROUTING</text>
  <text x="360" y="200" class="label" fill="#1e40af" font-size="11px">High-value customers skip to specialist</text>

  <!-- Arrow down -->
  <line x1="360" y1="215" x2="360" y2="250" stroke="#475569" stroke-width="2" marker-end="url(#arrow5)"/>
  <text x="395" y="238" class="label" fill="#6b7280" font-size="11px">(no match)</text>

  <!-- Tier 2: Rule-Based -->
  <rect x="240" y="250" width="240" height="60" rx="4" fill="#dbeafe" stroke="#3b82f6" stroke-width="2" filter="url(#shadow5)"/>
  <text x="360" y="275" class="label" fill="#1e40af" font-weight="bold">Tier 2: RULE-BASED</text>
  <text x="360" y="295" class="label" fill="#1e40af" font-size="11px">Keyword/regex matching (70% traffic)</text>

  <!-- Arrow down -->
  <line x1="360" y1="310" x2="360" y2="345" stroke="#475569" stroke-width="2" marker-end="url(#arrow5)"/>
  <text x="395" y="333" class="label" fill="#6b7280" font-size="11px">(no match)</text>

  <!-- Tier 3: LLM Classification -->
  <rect x="240" y="345" width="240" height="60" rx="4" fill="#dbeafe" stroke="#3b82f6" stroke-width="2" filter="url(#shadow5)"/>
  <text x="360" y="370" class="label" fill="#1e40af" font-weight="bold">Tier 3: LLM CLASSIFICATION</text>
  <text x="360" y="390" class="label" fill="#1e40af" font-size="11px">Nova Lite classifies ambiguous cases</text>

  <!-- Arrow down -->
  <line x1="360" y1="405" x2="360" y2="440" stroke="#475569" stroke-width="2" marker-end="url(#arrow5)"/>
  <text x="395" y="428" class="label" fill="#6b7280" font-size="11px">(low confidence)</text>

  <!-- Tier 4: Fallback -->
  <rect x="240" y="440" width="240" height="60" rx="4" fill="#dbeafe" stroke="#3b82f6" stroke-width="2" filter="url(#shadow5)"/>
  <text x="360" y="465" class="label" fill="#1e40af" font-weight="bold">Tier 4: FALLBACK</text>
  <text x="360" y="485" class="label" fill="#1e40af" font-size="11px">Default to general queue</text>

  <!-- Arrow down -->
  <line x1="360" y1="500" x2="360" y2="540" stroke="#475569" stroke-width="2" marker-end="url(#arrow5)"/>

  <!-- Specialist Agents label -->
  <text x="360" y="560" class="subtitle" font-style="italic">Specialist Agents</text>

  <!-- FraudAgent -->
  <rect x="40" y="580" width="140" height="50" rx="4" fill="#f0fdf4" stroke="#22c55e" stroke-width="2" filter="url(#shadow5)"/>
  <text x="110" y="610" class="label" fill="#166534">FraudAgent</text>

  <!-- LoanAgent -->
  <rect x="210" y="580" width="140" height="50" rx="4" fill="#f0fdf4" stroke="#22c55e" stroke-width="2" filter="url(#shadow5)"/>
  <text x="280" y="610" class="label" fill="#166534">LoanAgent</text>

  <!-- AccountAgent -->
  <rect x="380" y="580" width="140" height="50" rx="4" fill="#f0fdf4" stroke="#22c55e" stroke-width="2" filter="url(#shadow5)"/>
  <text x="450" y="610" class="label" fill="#166534">AccountAgent</text>

  <!-- GeneralAgent -->
  <rect x="550" y="580" width="140" height="50" rx="4" fill="#f0fdf4" stroke="#22c55e" stroke-width="2" filter="url(#shadow5)"/>
  <text x="620" y="610" class="label" fill="#166534">GeneralAgent</text>

  <!-- Arrows from router to agents -->
  <line x1="300" y1="540" x2="110" y2="580" stroke="#475569" stroke-width="1.5" marker-end="url(#arrow5)"/>
  <line x1="340" y1="540" x2="280" y2="580" stroke="#475569" stroke-width="1.5" marker-end="url(#arrow5)"/>
  <line x1="380" y1="540" x2="450" y2="580" stroke="#475569" stroke-width="1.5" marker-end="url(#arrow5)"/>
  <line x1="420" y1="540" x2="620" y2="580" stroke="#475569" stroke-width="1.5" marker-end="url(#arrow5)"/>

  <!-- Legend -->
  <g>
    <text x="40" y="700" class="subtitle" text-anchor="start" font-weight="bold">Legend:</text>

    <rect x="40" y="715" width="12" height="12" rx="2" fill="#dbeafe" stroke="#3b82f6"/>
    <text x="58" y="725" font-size="11" fill="#64748b">Routing Tiers</text>

    <rect x="200" y="715" width="12" height="12" rx="2" fill="#f0fdf4" stroke="#22c55e"/>
    <text x="218" y="725" font-size="11" fill="#64748b">Specialist Agents</text>

    <rect x="400" y="715" width="12" height="12" rx="2" fill="#fef3c7" stroke="#f59e0b"/>
    <text x="418" y="725" font-size="11" fill="#64748b">Input Data</text>

    <path d="M 560 721 L 580 721" stroke="#475569" stroke-width="2" marker-end="url(#arrow5)"/>
    <text x="595" y="725" font-size="11" fill="#64748b">Control Flow</text>
  </g>
</svg>
