<?xml version="1.0" encoding="UTF-8"?>
<svg viewBox="0 0 720 860" xmlns="http://www.w3.org/2000/svg" font-family='system-ui, -apple-system, "Segoe UI", sans-serif'>
  <defs>
    <filter id="sh" x="-4%" y="-4%" width="108%" height="116%">
      <feDropShadow dx="0" dy="2" stdDeviation="3" flood-opacity="0.08"/>
    </filter>
    <marker id="a" viewBox="0 0 10 8" refX="10" refY="4" markerWidth="8" markerHeight="6" orient="auto">
      <path d="M0,0.5 L9,4 L0,7.5" fill="none" stroke="#475569" stroke-width="1.2" stroke-linejoin="round"/>
    </marker>
    <marker id="ah" viewBox="0 0 10 8" refX="10" refY="4" markerWidth="8" markerHeight="6" orient="auto">
      <path d="M0,0.5 L9,4 L0,7.5" fill="none" stroke="#475569" stroke-width="1.2" stroke-linejoin="round"/>
    </marker>
  </defs>
  <rect width="720" height="860" rx="12" fill="#1e293b"/>
  <text x="360" y="30" text-anchor="middle" font-size="16" font-weight="700" fill="#ffffff">Lesson 7: Travel Booking Saga</text>
  <text x="360" y="50" text-anchor="middle" font-size="11" fill="#cbd5e1">Forward + compensating transactions in reverse</text>
  <rect x="270" y="65" width="180" height="38" rx="19" fill="#10b981" filter="url(#sh)"/>
  <text x="360" y="88" text-anchor="middle" font-size="12" font-weight="600" fill="white">Booking Request</text>
  <rect x="40" y="139" width="640" height="218" rx="10" fill="#f0fdf4" stroke="#86efac" stroke-width="1.5"/>
  <text x="60" y="159" font-size="11" font-weight="700" fill="#166534">FORWARD EXECUTION (sequential)</text>
  <rect x="70" y="167" width="280" height="42" rx="8" fill="#3b82f6" filter="url(#sh)"/>
  <text x="210" y="185" text-anchor="middle" font-size="11" font-weight="700" fill="white">FlightAgent</text>
  <text x="210" y="203" text-anchor="middle" font-size="9" fill="#bfdbfe">book_flight()</text>
  <text x="370" y="192" font-size="10" fill="#16a34a">✓</text>
  <rect x="390" y="171" width="210" height="32" rx="5" fill="#fee2e2" stroke="#fca5a5" stroke-width="1"/>
  <text x="495" y="192" text-anchor="middle" font-size="9" fill="#991b1b">cancel_flight()</text>
  <rect x="70" y="227" width="280" height="42" rx="8" fill="#3b82f6" filter="url(#sh)"/>
  <text x="210" y="245" text-anchor="middle" font-size="11" font-weight="700" fill="white">HotelAgent</text>
  <text x="210" y="263" text-anchor="middle" font-size="9" fill="#bfdbfe">book_hotel()</text>
  <text x="370" y="252" font-size="10" fill="#16a34a">✓</text>
  <rect x="390" y="231" width="210" height="32" rx="5" fill="#fee2e2" stroke="#fca5a5" stroke-width="1"/>
  <text x="495" y="252" text-anchor="middle" font-size="9" fill="#991b1b">cancel_hotel()</text>
  <rect x="70" y="287" width="280" height="42" rx="8" fill="#3b82f6" filter="url(#sh)"/>
  <text x="210" y="305" text-anchor="middle" font-size="11" font-weight="700" fill="white">CarAgent</text>
  <text x="210" y="323" text-anchor="middle" font-size="9" fill="#bfdbfe">book_car()</text>
  <text x="370" y="312" font-size="10" fill="#16a34a">✓</text>
  <rect x="390" y="291" width="210" height="32" rx="5" fill="#fee2e2" stroke="#fca5a5" stroke-width="1"/>
  <text x="495" y="312" text-anchor="middle" font-size="9" fill="#991b1b">cancel_car()</text>
  <rect x="120" y="371" width="480" height="42" rx="8" fill="#ef4444" filter="url(#sh)"/>
  <text x="360" y="389" text-anchor="middle" font-size="12" font-weight="700" fill="white">FAILURE DETECTED</text>
  <text x="360" y="406" text-anchor="middle" font-size="10" fill="#fecaca">Compensate in REVERSE order</text>
  <rect x="40" y="427" width="640" height="176" rx="10" fill="#fef2f2" stroke="#fca5a5" stroke-width="1.5"/>
  <text x="60" y="447" font-size="11" font-weight="700" fill="#991b1b">COMPENSATION (reverse order)</text>
  <rect x="140" y="455" width="440" height="32" rx="6" fill="#ef4444"/>
  <text x="360" y="476" text-anchor="middle" font-size="10" font-weight="600" fill="white">CarAgent: cancel_car()</text>
  <rect x="140" y="501" width="440" height="32" rx="6" fill="#ef4444"/>
  <text x="360" y="522" text-anchor="middle" font-size="10" font-weight="600" fill="white">HotelAgent: cancel_hotel()</text>
  <rect x="140" y="547" width="440" height="32" rx="6" fill="#ef4444"/>
  <text x="360" y="568" text-anchor="middle" font-size="10" font-weight="600" fill="white">FlightAgent: cancel_flight()</text>
  <rect x="70" y="621" width="280" height="34" rx="6" fill="#6366f1"/>
  <text x="210" y="643" text-anchor="middle" font-size="10" font-weight="600" fill="white">Barrier: done == needed</text>
  <rect x="380" y="621" width="280" height="34" rx="6" fill="#f59e0b"/>
  <text x="520" y="643" text-anchor="middle" font-size="10" font-weight="600" fill="#422006">DynamoDB: SagaState</text>
  <rect x="210" y="675" width="300" height="38" rx="19" fill="#10b981" filter="url(#sh)"/>
  <text x="360" y="698" text-anchor="middle" font-size="12" font-weight="600" fill="white">Booking Complete / Rolled Back</text>
  <rect x="202" y="753" width="14" height="14" rx="3" fill="#16a34a"/>
  <text x="220" y="764" font-size="10" fill="#e2e8f0">Forward</text>
  <rect x="279" y="753" width="14" height="14" rx="3" fill="#ef4444"/>
  <text x="297" y="764" font-size="10" fill="#e2e8f0">Compensate</text>
  <rect x="377" y="753" width="14" height="14" rx="3" fill="#6366f1"/>
  <text x="395" y="764" font-size="10" fill="#e2e8f0">Barrier</text>
  <rect x="454" y="753" width="14" height="14" rx="3" fill="#f59e0b"/>
  <text x="472" y="764" font-size="10" fill="#e2e8f0">State</text>
  <g id="arrows">
    <line x1="360" y1="106" x2="360" y2="136" stroke="#475569" stroke-width="1.5" marker-end="url(#a)"/>
    <text x="374" y="124" font-size="9" fill="#cbd5e1">booking request</text>
    <line x1="210" y1="212" x2="210" y2="224" stroke="#475569" stroke-width="1.5" marker-end="url(#a)"/>
    <text x="220" y="220" font-size="9" fill="#cbd5e1">booking_ref</text>
    <line x1="210" y1="272" x2="210" y2="284" stroke="#475569" stroke-width="1.5" marker-end="url(#a)"/>
    <text x="220" y="280" font-size="9" fill="#cbd5e1">booking_ref</text>
  </g>
</svg>