<svg viewBox="0 0 720 970" xmlns="http://www.w3.org/2000/svg">
  <defs>
    <filter id="shadow8" x="-50%" y="-50%" width="200%" height="200%">
      <feDropShadow dx="2" dy="2" stdDeviation="3" flood-opacity="0.15"/>
    </filter>
    <marker id="arrow8" markerWidth="10" markerHeight="10" refX="9" refY="3" orient="auto" markerUnits="strokeWidth">
      <path d="M0,0 L0,6 L9,3 z" fill="#475569"/>
    </marker>
    <style>
      text { font-family: 'Segoe UI', system-ui, sans-serif; }
      .title { font-size: 18px; font-weight: bold; text-anchor: middle; }
      .subtitle { font-size: 12px; fill: #6b7280; text-anchor: middle; }
      .label { font-size: 13px; text-anchor: middle; }
      .mono { font-family: 'Courier New', monospace; font-size: 10px; }
    </style>
  </defs>

  <!-- White background for dark mode compatibility -->
  <rect width="100%" height="100%" fill="white" rx="8"/>

  <!-- Title -->
  <text x="360" y="30" class="title">Lesson 8: Multi-Agent RAG Architecture</text>
  <text x="360" y="48" class="subtitle">Parallel knowledge base retrieval with synthesis</text>

  <!-- Research Query Input -->
  <rect x="280" y="70" width="160" height="50" rx="25" fill="#fef3c7" stroke="#f59e0b" stroke-width="2" filter="url(#shadow8)"/>
  <text x="360" y="100" class="label" fill="#92400e">Research Query</text>

  <!-- Arrow down -->
  <line x1="360" y1="120" x2="360" y2="160" stroke="#475569" stroke-width="2" marker-end="url(#arrow8)"/>

  <!-- ThreadPoolExecutor Box -->
  <rect x="200" y="160" width="320" height="60" rx="4" fill="#dbeafe" stroke="#3b82f6" stroke-width="2" filter="url(#shadow8)"/>
  <text x="360" y="185" class="label" fill="#1e40af" font-weight="bold">ThreadPoolExecutor</text>
  <text x="360" y="208" class="label" fill="#1e40af" font-size="11px">Parallel retrieval workers (Nova Lite instances)</text>

  <!-- Arrow down -->
  <line x1="360" y1="220" x2="360" y2="260" stroke="#475569" stroke-width="2" marker-end="url(#arrow8)"/>
  <text x="370" y="245" class="label" fill="#6b7280" font-size="11px">spawn workers</text>

  <!-- Parallel Retrieval Section -->
  <!-- CS Retriever -->
  <g>
    <rect x="80" y="280" width="160" height="100" rx="4" fill="#f0fdf4" stroke="#22c55e" stroke-width="2" filter="url(#shadow8)"/>
    <text x="160" y="305" class="label" fill="#166534" font-weight="bold">CS Retriever</text>
    <text x="160" y="325" class="label" fill="#166534" font-size="11px">(Nova Lite)</text>

    <line x1="90" y1="340" x2="230" y2="340" stroke="#94a3b8" stroke-width="1"/>
    <text x="160" y="358" class="label" fill="#166534" font-size="10px">Query: "machine learning"</text>
    <text x="160" y="372" class="label" fill="#166534" font-size="10px">Results: [DOC_CS_001, ...]</text>

    <!-- Arrow down to KB -->
    <line x1="160" y1="380" x2="160" y2="420" stroke="#475569" stroke-width="2" marker-end="url(#arrow8)"/>
  </g>

  <!-- Bio Retriever -->
  <g>
    <rect x="480" y="280" width="160" height="100" rx="4" fill="#f0fdf4" stroke="#22c55e" stroke-width="2" filter="url(#shadow8)"/>
    <text x="560" y="305" class="label" fill="#166534" font-weight="bold">Bio Retriever</text>
    <text x="560" y="325" class="label" fill="#166534" font-size="11px">(Nova Lite)</text>

    <line x1="490" y1="340" x2="630" y2="340" stroke="#94a3b8" stroke-width="1"/>
    <text x="560" y="358" class="label" fill="#166534" font-size="10px">Query: "neural biology"</text>
    <text x="560" y="372" class="label" fill="#166534" font-size="10px">Results: [DOC_BIO_042, ...]</text>

    <!-- Arrow down to KB -->
    <line x1="560" y1="380" x2="560" y2="420" stroke="#475569" stroke-width="2" marker-end="url(#arrow8)"/>
  </g>

  <!-- Knowledge Bases -->
  <!-- CS Papers KB -->
  <rect x="80" y="440" width="160" height="70" rx="4" fill="#f1f5f9" stroke="#94a3b8" stroke-width="2" filter="url(#shadow8)"/>
  <text x="160" y="465" class="label" fill="#475569" font-weight="bold">CS Papers KB</text>
  <text x="160" y="485" class="mono" fill="#475569">Embeddings, chunks,</text>
  <text x="160" y="499" class="mono" fill="#475569">metadata indices</text>

  <!-- Bio KB -->
  <rect x="480" y="440" width="160" height="70" rx="4" fill="#f1f5f9" stroke="#94a3b8" stroke-width="2" filter="url(#shadow8)"/>
  <text x="560" y="465" class="label" fill="#475569" font-weight="bold">Biology KB</text>
  <text x="160" y="485" class="mono" fill="#475569">Embeddings, chunks,</text>
  <text x="160" y="499" class="mono" fill="#475569">metadata indices</text>

  <!-- Arrows from KBs upward back to retrievers (query flow) -->
  <path d="M 160 440 L 160 380" stroke="#475569" stroke-width="2" stroke-dasharray="4" marker-end="url(#arrow8)" fill="none"/>
  <path d="M 560 440 L 560 380" stroke="#475569" stroke-width="2" stroke-dasharray="4" marker-end="url(#arrow8)" fill="none"/>

  <!-- Results merge point -->
  <line x1="240" y1="530" x2="480" y2="530" stroke="#475569" stroke-width="2" marker-end="url(#arrow8)"/>
  <text x="360" y="520" class="label" fill="#6b7280" font-size="10px">merge results</text>

  <!-- Arrow down to aggregation -->
  <line x1="360" y1="530" x2="360" y2="570" stroke="#475569" stroke-width="2" marker-end="url(#arrow8)"/>

  <!-- Aggregation Step -->
  <rect x="200" y="590" width="320" height="80" rx="4" fill="#fef3c7" stroke="#f59e0b" stroke-width="2" filter="url(#shadow8)"/>
  <text x="360" y="615" class="label" fill="#92400e" font-weight="bold">Aggregation</text>
  <text x="360" y="635" class="label" fill="#92400e" font-size="11px">Rank by relevance score, BM25, semantic similarity</text>
  <text x="360" y="655" class="label" fill="#92400e" font-size="11px">Select top-K documents (e.g., top-10)</text>

  <!-- Arrow down -->
  <line x1="360" y1="670" x2="360" y2="710" stroke="#475569" stroke-width="2" marker-end="url(#arrow8)"/>

  <!-- Synthesis Agent -->
  <rect x="180" y="730" width="360" height="100" rx="4" fill="#dbeafe" stroke="#3b82f6" stroke-width="2" filter="url(#shadow8)"/>
  <text x="360" y="755" class="label" fill="#1e40af" font-weight="bold">Synthesis Agent (Nova Pro)</text>
  <text x="360" y="775" class="label" fill="#1e40af" font-size="11px">Integrate top-K documents, synthesize coherent answer</text>
  <text x="360" y="795" class="label" fill="#1e40af" font-size="11px">Generate response with [DOC_ID] citations</text>

  <!-- Arrow down -->
  <line x1="360" y1="830" x2="360" y2="870" stroke="#475569" stroke-width="2" marker-end="url(#arrow8)"/>

  <!-- Final Output -->
  <rect x="260" y="890" width="200" height="50" rx="25" fill="#fae8ff" stroke="#a855f7" stroke-width="2" filter="url(#shadow8)"/>
  <text x="360" y="920" class="label" fill="#6b21a8">Grounded Research Summary</text>

  <!-- Detailed Info Box -->
  <g opacity="0.9">
    <rect x="40" y="480" width="220" height="100" rx="3" fill="#f9f5ff" stroke="#d8b4fe" stroke-width="1" filter="url(#shadow8)"/>
    <text x="50" y="498" class="label" fill="#6b21a8" font-size="10px" text-anchor="start" font-weight="bold">Retrieval Process:</text>
    <text x="50" y="515" class="label" fill="#6b21a8" font-size="9px" text-anchor="start">1. Query embedding</text>
    <text x="50" y="530" class="label" fill="#6b21a8" font-size="9px" text-anchor="start">2. Vector search</text>
    <text x="50" y="545" class="label" fill="#6b21a8" font-size="9px" text-anchor="start">3. Chunk filtering</text>
    <text x="50" y="560" class="label" fill="#6b21a8" font-size="9px" text-anchor="start">4. Parallel workers</text>
  </g>

  <!-- Legend -->
  <g>
    <text x="40" y="800" class="subtitle" text-anchor="start" font-weight="bold">Legend:</text>

    <rect x="40" y="815" width="12" height="12" rx="2" fill="#dbeafe" stroke="#3b82f6"/>
    <text x="58" y="823" class="label" text-anchor="start" font-size="11px">Agents</text>

    <rect x="160" y="815" width="12" height="12" rx="2" fill="#f0fdf4" stroke="#22c55e"/>
    <text x="178" y="823" class="label" text-anchor="start" font-size="11px">Retrievers</text>

    <rect x="300" y="815" width="12" height="12" rx="2" fill="#f1f5f9" stroke="#94a3b8"/>
    <text x="318" y="823" class="label" text-anchor="start" font-size="11px">Infrastructure</text>

    <rect x="460" y="815" width="12" height="12" rx="2" fill="#fef3c7" stroke="#f59e0b"/>
    <text x="478" y="823" class="label" text-anchor="start" font-size="11px">Processing</text>

    <rect x="600" y="815" width="12" height="12" rx="2" fill="#fae8ff" stroke="#a855f7"/>
    <text x="618" y="823" class="label" text-anchor="start" font-size="11px">Output</text>
  </g>
</svg>
