<?xml version="1.0" encoding="UTF-8"?>
<svg viewBox="0 0 660 520" xmlns="http://www.w3.org/2000/svg"
     role="img" font-family='system-ui, -apple-system, "Segoe UI", sans-serif'>
  <title>Exercise 8: Clinical Literature RAG — deduplication, structured output, graceful degradation</title>
  <desc>Clinical query flows into two parallel Bedrock KB retrievers. Results pass through deduplication and aggregation into a structured synthesis agent. If one KB fails, the system returns a PARTIAL report with a disclaimer.</desc>

  <defs>
    <marker id="a" viewBox="0 0 10 8" refX="9" refY="4" markerWidth="6" markerHeight="5" orient="auto">
      <path d="M0,1 L8,4 L0,7" fill="none" stroke="#475569" stroke-width="1.8" stroke-linejoin="round"/>
    </marker>
    <marker id="r" viewBox="0 0 10 8" refX="9" refY="4" markerWidth="6" markerHeight="5" orient="auto">
      <path d="M0,1 L8,4 L0,7" fill="none" stroke="#ef4444" stroke-width="1.8" stroke-linejoin="round"/>
    </marker>
  </defs>

  <rect width="660" height="520" rx="12" fill="#0f172a"/>

  <!-- Title -->
  <text x="330" y="30" text-anchor="middle" font-size="15" font-weight="700" fill="#f1f5f9">Exercise 8 — Clinical Literature RAG</text>

  <!-- Query -->
  <rect x="220" y="48" width="220" height="36" rx="18" fill="#059669"/>
  <text x="330" y="71" text-anchor="middle" font-size="13" font-weight="700" fill="#fff">Clinical Query</text>

  <line x1="330" y1="86" x2="330" y2="106" stroke="#475569" stroke-width="2" marker-end="url(#a)"/>

  <!-- Parallel zone label -->
  <text x="330" y="120" text-anchor="middle" font-size="10" font-weight="600" fill="#0891b2">&#9658; parallel (ThreadPoolExecutor)</text>

  <!-- Drug Retriever -->
  <rect x="60" y="130" width="220" height="66" rx="8" fill="#1e3a8a"/>
  <text x="170" y="152" text-anchor="middle" font-size="12" font-weight="700" fill="#fff">Drug Interactions KB</text>
  <text x="170" y="170" text-anchor="middle" font-size="10" fill="#93c5fd">Nova Lite retriever</text>
  <text x="170" y="186" text-anchor="middle" font-size="10" fill="#64748b">bedrock-agent-runtime.retrieve()</text>

  <!-- Guidelines Retriever -->
  <rect x="380" y="130" width="220" height="66" rx="8" fill="#1e3a8a"/>
  <text x="490" y="152" text-anchor="middle" font-size="12" font-weight="700" fill="#fff">Clinical Guidelines KB</text>
  <text x="490" y="170" text-anchor="middle" font-size="10" fill="#93c5fd">Nova Lite retriever</text>
  <text x="490" y="186" text-anchor="middle" font-size="10" fill="#64748b">bedrock-agent-runtime.retrieve()</text>

  <!-- Converging arrows -->
  <line x1="170" y1="198" x2="290" y2="236" stroke="#475569" stroke-width="1.8" marker-end="url(#a)"/>
  <line x1="490" y1="198" x2="370" y2="236" stroke="#475569" stroke-width="1.8" marker-end="url(#a)"/>

  <!-- Failure path -->
  <text x="80" y="230" text-anchor="middle" font-size="10" fill="#ef4444">&#9889; if KB fails &#8594; Drug=0</text>
  <line x1="80" y1="234" x2="80" y2="300" stroke="#ef4444" stroke-width="1.4" stroke-dasharray="4 3" marker-end="url(#r)"/>
  <rect x="30" y="302" width="100" height="22" rx="4" fill="#7f1d1d"/>
  <text x="80" y="317" text-anchor="middle" font-size="10" font-weight="700" fill="#fca5a5">PARTIAL flag</text>

  <!-- Dedup -->
  <rect x="175" y="240" width="310" height="44" rx="8" fill="#5b21b6"/>
  <text x="330" y="259" text-anchor="middle" font-size="12" font-weight="700" fill="#fff">Deduplication  &#10022; NEW</text>
  <text x="330" y="276" text-anchor="middle" font-size="10" fill="#c4b5fd">hash-based &#183; drop near-duplicates &#183; keep top score</text>

  <line x1="330" y1="286" x2="330" y2="306" stroke="#475569" stroke-width="2" marker-end="url(#a)"/>

  <!-- Aggregation -->
  <rect x="175" y="310" width="310" height="40" rx="8" fill="#1e3a8a"/>
  <text x="330" y="328" text-anchor="middle" font-size="12" font-weight="700" fill="#fff">Aggregation &amp; Ranking</text>
  <text x="330" y="343" text-anchor="middle" font-size="10" fill="#93c5fd">sort by score &#183; top-K = 10</text>

  <line x1="330" y1="352" x2="330" y2="372" stroke="#475569" stroke-width="2" marker-end="url(#a)"/>

  <!-- Synthesis Agent -->
  <rect x="120" y="376" width="420" height="68" rx="8" fill="#1d4ed8"/>
  <text x="330" y="396" text-anchor="middle" font-size="12" font-weight="700" fill="#fff">Synthesis Agent  &#10022; Structured Output NEW</text>
  <text x="330" y="413" text-anchor="middle" font-size="10" fill="#93c5fd">Nova Pro &#183; enforces 3 sections &#183; citations required</text>
  <rect x="130" y="420" width="118" height="18" rx="4" fill="#1e40af"/>
  <text x="189" y="433" text-anchor="middle" font-size="9" font-weight="600" fill="#bfdbfe">&#9312; Drug Interactions</text>
  <rect x="261" y="420" width="138" height="18" rx="4" fill="#1e40af"/>
  <text x="330" y="433" text-anchor="middle" font-size="9" font-weight="600" fill="#bfdbfe">&#9313; Clinical Guidelines</text>
  <rect x="412" y="420" width="118" height="18" rx="4" fill="#1e40af"/>
  <text x="471" y="433" text-anchor="middle" font-size="9" font-weight="600" fill="#bfdbfe">&#9314; Recommendation</text>

  <line x1="330" y1="446" x2="330" y2="466" stroke="#475569" stroke-width="2" marker-end="url(#a)"/>

  <!-- Output -->
  <rect x="180" y="470" width="300" height="36" rx="18" fill="#059669"/>
  <text x="330" y="493" text-anchor="middle" font-size="13" font-weight="700" fill="#fff">Clinical Report</text>

  <!-- Graceful degradation footnote -->
  <text x="330" y="516" text-anchor="middle" font-size="10" fill="#ef4444">&#9889; Graceful Degradation: if KB fails, report shows PARTIAL + disclaimer  &#10022; NEW</text>
</svg>
